<?xml version="1.0" encoding="UTF-8" standalone="no"?>
<!-- Created with Inkscape (http://www.inkscape.org/) -->

<svg
   width="1024"
   height="1024"
   viewBox="0 0 270.93333 270.93333"
   version="1.1"
   id="svg5"
   xml:space="preserve"
   inkscape:version="1.2 (dc2aedaf03, 2022-05-15)"
   sodipodi:docname="clumi-colored.svg"
   xmlns:inkscape="http://www.inkscape.org/namespaces/inkscape"
   xmlns:sodipodi="http://sodipodi.sourceforge.net/DTD/sodipodi-0.dtd"
   xmlns="http://www.w3.org/2000/svg"
   xmlns:svg="http://www.w3.org/2000/svg"><sodipodi:namedview
     id="namedview7"
     pagecolor="#ffffff"
     bordercolor="#000000"
     borderopacity="0.25"
     inkscape:showpageshadow="2"
     inkscape:pageopacity="0.0"
     inkscape:pagecheckerboard="0"
     inkscape:deskcolor="#d1d1d1"
     inkscape:document-units="mm"
     showgrid="false"
     inkscape:zoom="0.914906"
     inkscape:cx="286.91472"
     inkscape:cy="575.46896"
     inkscape:window-width="1918"
     inkscape:window-height="2096"
     inkscape:window-x="0"
     inkscape:window-y="0"
     inkscape:window-maximized="0"
     inkscape:current-layer="layer1" /><defs
     id="defs2" /><g
     inkscape:label="Layer 1"
     inkscape:groupmode="layer"
     id="layer1"><path
       style="display:inline;fill:#000000;stroke-width:0.423687"
       d="m 85.628207,235.58474 c -6.61387,-0.36993 -7.57106,-0.59093 -9.907255,-2.28751 -0.07688,-0.0559 0.155922,-0.5528 0.517338,-1.1044 0.594125,-0.90674 2.093059,-4.93726 3.278434,-8.81545 0.24929,-0.81559 0.72029,-1.7839 1.046673,-2.15179 0.326384,-0.3679 0.59342,-1.06651 0.59342,-1.55249 0,-1.06279 2.461036,-7.61468 4.003902,-10.65938 0.608793,-1.20141 1.596404,-4.03784 2.194693,-6.30319 0.598284,-2.26537 1.465827,-4.73849 1.92787,-5.49584 0.462049,-0.75734 0.77687,-1.39286 0.699606,-1.41229 -0.07726,-0.0194 -0.521796,-0.097 -0.987853,-0.17241 -4.51844,-0.73113 -15.143053,-5.41871 -19.701464,-8.69227 -1.281655,-0.92042 -2.692364,-1.916 -3.13491,-2.21244 -5.435007,-3.64056 -12.312899,-11.45708 -16.204522,-18.41597 l -1.547409,-2.76701 -2.584968,0.28515 c -5.698027,0.62854 -14.499041,3.05098 -18.384549,5.06024 -1.538561,0.79563 -3.661364,3.71245 -4.578173,6.29062 -0.999226,2.80992 -1.215093,8.12586 -0.46042,11.33827 0.468964,1.99624 0.500656,2.55429 0.115184,2.02825 -0.843137,-1.15061 -1.675682,-7.59022 -1.395147,-10.79125 0.755371,-8.61909 4.425753,-11.35382 19.803148,-14.75502 2.625493,-0.58071 5.24576,-1.05584 5.822813,-1.05584 0.974701,0 1.031318,-0.11273 0.797409,-1.58883 -0.744816,-4.70003 -1.204844,-10.19061 -1.042202,-12.43907 l 0.184264,-2.54747 -3.842086,0.27274 c -4.727411,0.33557 -15.42224,2.44226 -19.716422,3.88376 -5.872865,1.97145 -8.912149,3.84793 -12.599486,7.77899 -3.5478755,3.7824 -5.4931556,8.42578 -6.6475043,15.8676 -0.1084426,0.69908 -0.1092593,-0.18446 -0.00176,-1.96345 0.6886779,-11.40218 7.0371433,-19.10981 19.1991373,-23.30954 5.780534,-1.9961 11.215311,-3.05315 18.042429,-3.50916 4.448396,-0.29713 5.248096,-0.61294 5.543835,-2.18938 0.14806,-0.78924 0.165561,-1.86522 0.0389,-2.39107 -0.126682,-0.52585 -0.04873,-1.81405 0.173233,-2.86267 0.544502,-2.57248 0.574661,-2.6763 0.954047,-3.28357 0.18197,-0.2913 0.211242,-0.72315 0.06505,-0.9597 -0.52505,-0.84954 3.819568,-18.75359 6.78411,-27.95712 2.944246,-9.140498 6.594371,-19.625852 7.595871,-21.819926 0.319105,-0.69908 1.279948,-2.986992 2.135211,-5.084249 0.855259,-2.09724 2.208933,-5.202736 3.008156,-6.901084 0.799218,-1.698342 1.453129,-3.172219 1.453129,-3.275276 0,-0.431556 6.70476,-13.697983 7.753928,-15.342381 0.628931,-0.985739 1.148845,-1.939035 1.15537,-2.118438 0.0066,-0.179401 1.585964,-2.514271 3.509874,-5.188598 4.896907,-6.806951 7.419228,-8.357563 11.746314,-7.221105 1.474152,0.38717 2.480228,1.120365 4.561524,3.324312 2.518391,2.66679 8.640521,10.893597 9.828931,13.207924 0.86841,1.691174 3.40336,5.512961 5.43347,8.191729 1.51419,1.998009 2.04612,2.424641 2.7744,2.225197 0.49556,-0.135713 3.28427,-0.763729 6.19711,-1.395595 4.59422,-0.996594 6.25063,-1.148846 12.49878,-1.148846 6.24815,0 7.90456,0.152255 12.49878,1.148846 2.91285,0.631866 5.70155,1.259885 6.19712,1.395595 0.72827,0.199444 1.2602,-0.227188 2.7744,-2.225197 2.03011,-2.678768 4.56505,-6.500555 5.43347,-8.191729 1.1884,-2.314327 7.31054,-10.541134 9.82894,-13.207924 2.08129,-2.203947 3.08736,-2.937142 4.56152,-3.324312 4.32709,-1.136458 6.8494,0.414154 11.74631,7.221105 1.92391,2.674327 3.50336,5.009197 3.50988,5.188598 0.006,0.179403 0.52644,1.132699 1.15536,2.118438 1.04917,1.644398 7.75394,14.910825 7.75394,15.342381 0,0.103062 0.65391,1.576934 1.45312,3.275276 0.79923,1.698348 2.1529,4.803844 3.00816,6.901084 0.85526,2.097257 1.81611,4.385169 2.13521,5.084249 1.00149,2.194074 4.65163,12.679428 7.59587,21.819926 2.96454,9.20353 7.30916,27.10758 6.78411,27.95712 -0.1462,0.23655 -0.11689,0.6684 0.065,0.9597 0.37939,0.60727 0.40954,0.71109 0.95404,3.28357 0.22197,1.04862 0.29992,2.33682 0.17324,2.86267 -0.12667,0.52585 -0.10921,1.60183 0.0389,2.39107 0.29573,1.57644 1.09544,1.89225 5.54383,2.18938 6.82712,0.45601 12.2619,1.51306 18.04244,3.50916 12.16199,4.19973 18.51046,11.90736 19.19913,23.30954 0.10745,1.77899 0.10665,2.66253 -0.002,1.96345 -1.15434,-7.44182 -3.09963,-12.0852 -6.64751,-15.8676 -3.68733,-3.93106 -6.72661,-5.80754 -12.59949,-7.77899 -4.29418,-1.4415 -14.989,-3.54819 -19.71641,-3.88376 l -3.84209,-0.27274 0.18427,2.54747 c 0.16265,2.24846 -0.29739,7.73904 -1.0422,12.43907 -0.23391,1.47603 -0.1773,1.58883 0.7974,1.58883 0.57706,0 3.19733,0.47513 5.82282,1.05584 15.37739,3.4012 19.04777,6.13593 19.80314,14.75502 0.28054,3.20103 -0.55201,9.64064 -1.39513,10.79125 -0.38548,0.52604 -0.35379,-0.032 0.11513,-2.02825 0.75466,-3.21241 0.5388,-8.52835 -0.46041,-11.33827 -0.91682,-2.57817 -3.03963,-5.49499 -4.57818,-6.29062 -3.88552,-2.00926 -12.68652,-4.4317 -18.38455,-5.06024 l -2.58498,-0.28515 -1.5474,2.76701 c -3.89162,6.95889 -10.76951,14.77541 -16.20452,18.41597 -0.44255,0.29644 -1.85326,1.29202 -3.13491,2.21244 -4.55841,3.27356 -15.18302,7.96114 -19.70147,8.69227 -0.46605,0.0754 -0.91058,0.15293 -0.98785,0.17241 -0.0772,0.0194 0.23756,0.65495 0.69961,1.41229 0.46203,0.75735 1.32957,3.23047 1.92787,5.49584 0.59829,2.26535 1.5859,5.10178 2.19469,6.30319 1.54286,3.0447 4.00389,9.59659 4.00389,10.65938 0,0.48598 0.26704,1.18459 0.59343,1.55249 0.32638,0.36789 0.79738,1.3362 1.04667,2.15179 1.18539,3.87819 2.68432,7.90871 3.27843,8.81545 0.36142,0.5516 0.59423,1.04857 0.51735,1.1044 -2.35072,1.70713 -3.17448,1.87502 -11.43708,2.331 -9.95832,0.54956 -85.885588,0.51512 -95.872945,-0.0436 z m 54.421163,-55.64972 c 7.11323,-1.6464 12.66672,-4.54396 16.52381,-8.6214 1.04862,-1.10852 2.28633,-2.22623 2.75045,-2.48377 0.46412,-0.25754 0.74602,-0.56609 0.62646,-0.68564 -1.41445,-1.41445 -49.82654,-1.41445 -51.24099,0 -0.11956,0.11962 0.16235,0.4281 0.62646,0.68564 0.46412,0.25754 1.70181,1.37525 2.75044,2.48377 6.5815,6.95748 18.83288,10.7347 27.96337,8.6214 z m -14.97132,-36.97506 c 0.78673,-6.02982 -0.46891,-13.83356 -2.93575,-18.24571 -1.59869,-2.85933 -5.61426,-6.83407 -8.67516,-8.58692 -3.83074,-2.19372 -7.07013,-2.88774 -11.62997,-2.49166 -4.736414,0.41141 -7.434137,1.37946 -11.404699,4.09243 -3.02159,2.06459 -6.103009,5.679 -7.926124,9.29714 -1.63109,3.23704 -2.621091,8.22404 -2.614105,13.16817 0.0066,4.68644 0.150046,5.34014 1.264575,5.7636 0.349544,0.13275 10.27909,0.24648 22.065663,0.25261 l 21.43012,0.0112 0.42545,-3.26082 z m 63.28071,2.45895 c 0.76803,-1.21513 0.47824,-9.56651 -0.45939,-13.23882 -1.59,-6.22747 -4.9222,-11.20612 -9.67266,-14.45199 -3.97055,-2.71297 -6.66828,-3.68102 -11.4047,-4.09243 -3.28667,-0.28549 -4.40051,-0.21229 -6.67723,0.4388 -7.39729,2.11544 -13.78079,8.46081 -15.60542,15.51222 -1.0233,3.95458 -1.43526,9.71716 -0.95681,13.38406 l 0.42688,3.27163 21.97383,-0.094 c 19.0017,-0.0812 22.02815,-0.17993 22.3755,-0.72951 z"
       id="path125" /><path
       style="display:inline;fill:#e9afaf;stroke-width:1.09301"
       d="m 495.13283,680.8565 c -19.93246,-2.72551 -44.73635,-12.49319 -58.62384,-23.08584 -7.14052,-5.44642 -24.28608,-21.61629 -23.62334,-22.27903 4.08828,-4.08827 185.54528,-4.08827 189.63356,0 0.67712,0.67712 -16.59294,16.92435 -23.62333,22.22423 -22.27075,16.78884 -58.00945,26.66213 -83.76305,23.14064 z"
       id="path254"
       transform="scale(0.26458333)" /><path
       style="fill:#ffffff;stroke-width:1.09301"
       d="m 544.40747,549.51 c -0.39171,-1.35259 -1.01137,-8.89922 -1.37701,-16.77027 -1.09521,-23.57589 2.53098,-44.31334 10.19803,-58.32049 8.82043,-16.11432 22.37749,-29.05966 38.90632,-37.1508 15.43638,-7.55636 25.75473,-9.09108 44.03119,-6.54906 38.06319,5.2941 68.48756,36.64146 74.9317,77.20492 1.89774,11.94559 1.97948,39.12081 0.12326,40.98149 -2.10793,2.11297 -27.22551,2.84629 -101.46801,2.9624 l -64.63327,0.10108 z"
       id="path325"
       transform="scale(0.26458333)" /><path
       style="fill:#ffffff;stroke-width:1.09301"
       d="m 309.67784,551.17801 c -6.5134,-0.68739 -6.92413,-1.91434 -6.83526,-20.41876 0.16329,-34.0037 8.04578,-55.31216 27.75041,-75.0168 14.62427,-14.62427 30.42759,-22.5835 50.02146,-25.19295 26.54258,-3.53486 45.44823,3.45052 66.50756,24.57363 12.7828,12.8215 17.28351,20.68687 21.95615,38.37019 2.5804,9.76539 2.89952,13.02653 2.99483,30.60424 0.0587,10.82078 -0.28451,21.5186 -0.76261,23.77293 l -0.8693,4.09878 -78.37382,-0.18373 c -43.10561,-0.10106 -80.18085,-0.37444 -82.38942,-0.60753 z"
       id="path327"
       transform="scale(0.26458333)" /></g></svg>
